<svg width="11.953" height="12" viewBox="0 0 11.953 12" xmlns="http://www.w3.org/2000/svg">
    <g transform="translate(-7.19 7.385)">
        <path d="M11.679,1.85h0L10.129.3a1.152,1.152,0,0,0-1.55,0L7.329,1.5l3.05,3.05,1.2-1.3a.948.948,0,0,0,.2-1.3.107.107,0,0,0-.1-.1h0Zm-2.15,4-3.2-3.2L1.23,7.5c-.05.05-.05.1-.1.15l-1.1,3.7a.475.475,0,0,0,.1.5.3.3,0,0,0,.3.15H.58l3.7-1.05c.1,0,.15-.1.25-.15l5-4.949ZM1.78,10.65l-.4-.4.65-2.1,1.5.35.3,1.6-2.05.55Z" transform="translate(7.19 -7.385)" fill="currentColor"/>
    </g>
</svg>

