<svg xmlns="http://www.w3.org/2000/svg" width="9" height="17" viewBox="0 0 9 17">
  <g id="Grip" transform="translate(0.5 0.5)">
    <path id="grip-dots-vertical" d="M32,65.333a1.333,1.333,0,1,1,1.333,1.333A1.334,1.334,0,0,1,32,65.333ZM32,72a1.333,1.333,0,1,1,1.333,1.333A1.333,1.333,0,0,1,32,72Zm2.667,6.667a1.333,1.333,0,1,1-1.333-1.333A1.333,1.333,0,0,1,34.667,78.667Zm2.667-13.333a1.333,1.333,0,1,1,1.333,1.333A1.333,1.333,0,0,1,37.333,65.333ZM40,72a1.333,1.333,0,1,1-1.333-1.333A1.332,1.332,0,0,1,40,72Zm-2.667,6.667A1.333,1.333,0,1,1,38.667,80,1.332,1.332,0,0,1,37.333,78.667Z" transform="translate(-32 -64)" fill="none" stroke="#707070" stroke-width="1"/>
  </g>
</svg>
