<svg xmlns="http://www.w3.org/2000/svg" width="8.35" height="9.438" viewBox="0 0 8.35 9.438">
  <g id="Grip_corner" data-name="Grip corner" transform="translate(0.5 0.5)">
    <path id="grip-dots-vertical" d="M25.32,71.735a.7.7,0,1,1,.7.7A.7.7,0,0,1,25.32,71.735Zm3.131-3.516a.7.7,0,1,1,.7.7A.7.7,0,0,1,28.451,68.219Zm1.406,3.516a.7.7,0,1,1-.7-.7A.7.7,0,0,1,29.858,71.735ZM31.264,64.7a.7.7,0,1,1,.7.7A.7.7,0,0,1,31.264,64.7Zm1.406,3.516a.7.7,0,1,1-.7-.7A.7.7,0,0,1,32.67,68.219Zm-1.406,3.516a.7.7,0,1,1,.7.7A.7.7,0,0,1,31.264,71.735Z" transform="translate(-25.32 -64)" fill="none" stroke="#707070" stroke-width="1"/>
  </g>
</svg>
