<svg id="Header_icon-app_switcher" data-name="Header icon-app switcher" xmlns="http://www.w3.org/2000/svg" width="22.003" height="22.002" viewBox="0 0 22.003 22.002">
  <g id="Header_icon-app_switcher-2" data-name="Header icon-app switcher" transform="translate(-253.999 -633)">
    <path id="Union_13" data-name="Union 13" d="M-1279,21680a1,1,0,0,1-1-1v-4a1,1,0,0,1,1-1h4a1,1,0,0,1,1,1v4a1,1,0,0,1-1,1Zm-8,0a1.006,1.006,0,0,1-1.007-1v-4a1,1,0,0,1,1.007-1H-1283a1,1,0,0,1,1.007,1v4a1.006,1.006,0,0,1-1.007,1Zm-8,0a1,1,0,0,1-1-1v-4a1,1,0,0,1,1-1h4a1,1,0,0,1,1,1v4a1,1,0,0,1-1,1Zm16-8a1,1,0,0,1-1-1v-4a1,1,0,0,1,1-1h4a.994.994,0,0,1,1,1v4a.993.993,0,0,1-1,1Zm-8,0a1,1,0,0,1-1-1v-4a1,1,0,0,1,1-1h4a1,1,0,0,1,1,1v4a1,1,0,0,1-1,1Zm-8,0a.993.993,0,0,1-1-1v-4a.993.993,0,0,1,1-1h4a1,1,0,0,1,1,1v4a1,1,0,0,1-1,1Zm16-8a1,1,0,0,1-1-1v-4a1,1,0,0,1,1-1h4a1,1,0,0,1,1,1v4a1,1,0,0,1-1,1Zm-8,0a1,1,0,0,1-1-1v-4a1,1,0,0,1,1-1h4a.993.993,0,0,1,1,1v4a1,1,0,0,1-1,1Zm-8,0a1,1,0,0,1-1-1v-4a1,1,0,0,1,1-1h4a1,1,0,0,1,1,1v4a1,1,0,0,1-1,1Z" transform="translate(1549.998 -21025)" fill="#1a1a1a"/>
  </g>
</svg>
