<svg id="Help-Header_Only" data-name="Help-Header Only" xmlns="http://www.w3.org/2000/svg" width="24" height="24" viewBox="0 0 24 24">
  <path id="circle-question" d="M12,0A12,12,0,1,0,24,12,12,12,0,0,0,12,0Zm0,18.75a1.481,1.481,0,0,1-1.5-1.5,1.456,1.456,0,0,1,1.5-1.5,1.5,1.5,0,0,1,0,3Zm3.239-6.656-2.114,1.313V13.5a1.125,1.125,0,0,1-2.25,0v-.75a1.156,1.156,0,0,1,.563-.984l2.672-1.594a1,1,0,0,0,.516-.891A1.078,1.078,0,0,0,13.552,8.25h-2.4a1.014,1.014,0,0,0-1.031,1.031,1.125,1.125,0,0,1-2.25,0A3.252,3.252,0,0,1,11.114,6h2.4a3.265,3.265,0,0,1,1.73,6.094Z" fill="#1a1a1a"/>
</svg>
