<svg id="icon-core-settings" xmlns="http://www.w3.org/2000/svg" width="18" height="18.68" viewBox="0 0 18 18.68">
  <path id="gear" d="M14.812,9.34a3.5,3.5,0,0,1,7.005,0,3.5,3.5,0,0,1-7.005,0Zm3.5-1.751A1.751,1.751,0,1,0,20.066,9.34,1.752,1.752,0,0,0,18.314,7.589ZM19.668,0a1.752,1.752,0,0,1,1.7,1.34l.285,1.185a7.283,7.283,0,0,1,.887.513l1.171-.345a1.754,1.754,0,0,1,2.014.8l1.354,2.343a1.76,1.76,0,0,1-.31,2.145l-.887.81c.011.2.018.372.018.544s-.007.343-.018.511l.887.843a1.76,1.76,0,0,1,.31,2.145l-1.354,2.342a1.758,1.758,0,0,1-2.014.806l-1.171-.347a7.588,7.588,0,0,1-.887.514l-.285,1.186a1.753,1.753,0,0,1-1.7,1.339H16.961a1.753,1.753,0,0,1-1.7-1.339l-.285-1.186a7.588,7.588,0,0,1-.887-.514l-1.2.347a1.729,1.729,0,0,1-1.979-.806L9.549,12.839a1.752,1.752,0,0,1,.309-2.145l.884-.843c-.011-.168-.017-.339-.017-.544,0-.139.006-.31.017-.511l-.884-.81a1.752,1.752,0,0,1-.309-2.145L10.9,3.5a1.724,1.724,0,0,1,1.979-.8l1.2.345a7.283,7.283,0,0,1,.887-.513l.285-1.185A1.752,1.752,0,0,1,16.961,0Zm-3.2,3.78-.409.171a5.756,5.756,0,0,0-1.284.744l-.354.27-2.006-.591L11.065,6.717l1.514,1.441-.056.438a5.954,5.954,0,0,0,0,1.489l.056.438-1.514,1.441,1.354,2.342,2.006-.591.354.27a5.756,5.756,0,0,0,1.284.744l.409.171.489,2.029h2.707l.489-2.029.409-.171a5.756,5.756,0,0,0,1.284-.744l.354-.27,2.007.591,1.354-2.342L24.05,10.522l.055-.438a5.863,5.863,0,0,0,0-1.489l-.055-.438,1.514-1.441L24.21,4.375,22.2,4.966,21.85,4.7a5.756,5.756,0,0,0-1.284-.744l-.409-.171-.489-2.029H16.961Z" transform="translate(-9.314)"/>
</svg>
