<svg id="icon-content-lock" xmlns="http://www.w3.org/2000/svg" width="12.634" height="14.439" viewBox="0 0 12.634 14.439">
  <path id="lock-keyhole" d="M6.317,0a4.061,4.061,0,0,1,4.061,4.061V5.414h.451a1.806,1.806,0,0,1,1.8,1.8v5.414a1.806,1.806,0,0,1-1.8,1.8H1.8a1.806,1.806,0,0,1-1.8-1.8V7.219a1.806,1.806,0,0,1,1.8-1.8h.451V4.061A4.061,4.061,0,0,1,6.317,0Zm0,1.8A2.256,2.256,0,0,0,4.061,4.061V5.414H8.573V4.061A2.256,2.256,0,0,0,6.317,1.8Zm.9,7.219a.9.9,0,1,0-1.8,0v1.8a.9.9,0,1,0,1.8,0Z"/>
</svg>
