<svg xmlns="http://www.w3.org/2000/svg" width="18" height="15.75" viewBox="0 0 18 15.75">
  <path id="icon-data-analytics" d="M1.688,13.219a.843.843,0,0,0,.844.844H17.156a.844.844,0,0,1,0,1.688H2.531A2.531,2.531,0,0,1,0,13.219V.844a.844.844,0,0,1,1.688,0ZM12.094,3.375h3.938a.841.841,0,0,1,.844.844V8.156a.844.844,0,0,1-1.687,0v-1.9l-3.934,3.875a.765.765,0,0,1-1.164,0L7.281,7.379,5.066,9.566a.765.765,0,0,1-1.164,0A.813.813,0,0,1,3.9,8.4L6.715,5.59a.811.811,0,0,1,1.164,0l2.809,2.781L14,5.063h-1.9a.844.844,0,0,1,0-1.687Z"/>
</svg>
