<svg id="icon-compare" xmlns="http://www.w3.org/2000/svg" width="24" height="14.775" viewBox="0 0 24 14.775">
  <path id="Union_9" data-name="Union 9" d="M-1589.464,21598.775a.722.722,0,0,1-.406-.223.684.684,0,0,1-.2-.4v-3.064h.924v2.768h9.226v-9.225h-2.206a.781.781,0,0,1-.369-.205.789.789,0,0,1-.192-.369v-3.119h-6.459v5.535h-.924v-5.8a.7.7,0,0,1,.211-.426.972.972,0,0,1,.425-.229h7.493a.388.388,0,0,1,.177,0,.549.549,0,0,1,.129.129l2.546,3.008a.724.724,0,0,1,.092.285v10.717a.683.683,0,0,1-.2.4.722.722,0,0,1-.406.223Zm-12.966,0a.656.656,0,0,1-.377-.223.693.693,0,0,1-.185-.4v-10.373a1.8,1.8,0,0,1,0-.344.807.807,0,0,1,.1-.285l2.328-3.045a.319.319,0,0,1,.118-.092.342.342,0,0,1,.166,0h7.8a.677.677,0,0,1,.381.223.748.748,0,0,1,.185.406v5.83h-.924v-5.535h-6.459v3.082a.8.8,0,0,1-.2.389.659.659,0,0,1-.37.223h-2.206v9.225h9.23v-2.768h.924v3.064a.742.742,0,0,1-.185.4.677.677,0,0,1-.381.223Zm3.968-6.322,2.823-2.711v2.316h9.034v-2.354l2.823,2.822-2.823,2.713v-2.262h-9.034v2.3Z" transform="translate(1603 -21584)" fill="#1a1a1a"/>
</svg>
