<svg id="icon-content-pop-out" xmlns="http://www.w3.org/2000/svg" width="16" height="16" viewBox="0 0 16 16">
  <path id="arrow-up-right-from-square" d="M10,33.714A.857.857,0,0,1,10,32h5.143a.856.856,0,0,1,.857.857V38a.857.857,0,1,1-1.714,0V34.925L7.146,42a.776.776,0,0,1-1.182,0,.826.826,0,0,1,0-1.182l7.111-7.107ZM0,35.143a2,2,0,0,1,2-2H6a.857.857,0,0,1,0,1.714H2a.286.286,0,0,0-.286.286V46A.286.286,0,0,0,2,46.286H12.857A.287.287,0,0,0,13.143,46V42a.857.857,0,1,1,1.714,0v4a2,2,0,0,1-2,2H2a2,2,0,0,1-2-2Z" transform="translate(0 -32)"/>
</svg>
