<svg id="icon-general-admin-group" xmlns="http://www.w3.org/2000/svg" width="18" height="14.4" viewBox="0 0 18 14.4">
  <path id="users" d="M9,9A2.925,2.925,0,1,0,6.1,6.075,2.9,2.9,0,0,0,9,9Zm1.406.9H7.6a3.879,3.879,0,0,0-4,3.749.775.775,0,0,0,.8.751h9.2a.775.775,0,0,0,.8-.751A3.879,3.879,0,0,0,10.4,9.9Zm4-5.4a2.25,2.25,0,1,0-2.25-2.25A2.25,2.25,0,0,0,14.4,4.5ZM5.172,6.075a3.747,3.747,0,0,1,.045-.447,2.037,2.037,0,0,0-1-.228H2.477A2.554,2.554,0,0,0,0,8.024a.512.512,0,0,0,.5.526H6.107A3.788,3.788,0,0,1,5.172,6.075ZM3.6,4.5A2.25,2.25,0,1,0,1.35,2.25,2.25,2.25,0,0,0,3.6,4.5Zm11.922.9H13.783a2.345,2.345,0,0,0-1.009.232,3.853,3.853,0,0,1,.045.443,3.792,3.792,0,0,1-.933,2.475H17.5a.512.512,0,0,0,.5-.526A2.554,2.554,0,0,0,15.522,5.4Z"/>
</svg>
