<svg xmlns="http://www.w3.org/2000/svg" width="18.452" height="4.612" viewBox="0 0 18.452 4.612">
  <path id="icon-core-mini-menu" d="M10.766,2.845A2.3,2.3,0,0,1,8.46,5.075h0a2.247,2.247,0,0,1-2.306-2.23h0A2.249,2.249,0,0,1,8.46.615h0a2.247,2.247,0,0,1,2.306,2.23Zm0,7a2.3,2.3,0,0,1-2.306,2.23h0a2.247,2.247,0,0,1-2.306-2.23h0A2.3,2.3,0,0,1,8.46,7.611h0a2.3,2.3,0,0,1,2.306,2.23Zm0,7a2.249,2.249,0,0,1-2.306,2.23h0a2.23,2.23,0,0,1,0-4.46h0a2.3,2.3,0,0,1,2.306,2.23Z" transform="translate(19.067 -6.154) rotate(90)"/>
</svg>
