<svg id="icon-content-edit-close" xmlns="http://www.w3.org/2000/svg" width="18" height="14.4" viewBox="0 0 18 14.4">
  <path id="pencil-slash" d="M7.434,5.113,10,2.541,13.66,6.2,11.529,8.325l6.213,4.868a.675.675,0,1,1-.832,1.063L.259,1.206A.675.675,0,1,1,1.092.144ZM3.448,9.1,5.507,7.04,9.6,10.26,7.1,12.752,6.148,11.8l.1-.1H4.925a.469.469,0,0,1-.45-.45v-1.3l-.073.1a1.154,1.154,0,0,0-.284.478l-.647,2.2,2.2-.647a1.339,1.339,0,0,0,.478-.284l.953.953a2.466,2.466,0,0,1-1.052.624l-3.384,1A.634.634,0,0,1,2,14.178a.619.619,0,0,1-.17-.644l1-3.383A2.466,2.466,0,0,1,3.448,9.1ZM15.657,1.653a1.8,1.8,0,0,1,0,2.547L14.3,5.56,10.64,1.9,12,.544a1.8,1.8,0,0,1,2.548,0Z" transform="translate(0 0)"/>
</svg>
