<svg id="icon-general-bell-outline" xmlns="http://www.w3.org/2000/svg" width="16" height="18.287" viewBox="0 0 16 18.287">
  <path id="bell" d="M9.143,1.143v.639a5.431,5.431,0,0,1,4.572,5.362V8.336A7.167,7.167,0,0,0,15.279,12.8l.532.664a.857.857,0,0,1-.668,1.393H.857a.857.857,0,0,1-.669-1.393L.72,12.8A7.153,7.153,0,0,0,2.286,8.336V7.143A5.431,5.431,0,0,1,6.857,1.782V1.143a1.143,1.143,0,0,1,2.286,0ZM7.714,3.429A3.716,3.716,0,0,0,4,7.143V8.336a8.867,8.867,0,0,1-1.418,4.807H13.418A8.87,8.87,0,0,1,12,8.336V7.143A3.716,3.716,0,0,0,8.286,3.429ZM10.286,16A2.28,2.28,0,0,1,8,18.287a2.287,2.287,0,0,1-1.618-.668A2.344,2.344,0,0,1,5.714,16Z" transform="translate(0)"/>
</svg>
