<svg id="icon-campaign-settings" xmlns="http://www.w3.org/2000/svg" width="24.251" height="26.168" viewBox="0 0 24.251 26.168">
  <path id="Union_7" data-name="Union 7" d="M-1587.2,21610.17a1.443,1.443,0,0,1-1.394-1.1l-.239-1c-.244-.135-.488-.271-.721-.422l-1,.281a1.431,1.431,0,0,1-1.622-.662l-1.106-1.908a1.426,1.426,0,0,1,.26-1.752l.716-.689v-.861l-.716-.668a1.426,1.426,0,0,1-.26-1.752l1.09-1.9a1.41,1.41,0,0,1,1.616-.66l1,.281c.233-.146.472-.287.716-.424l.244-1a1.427,1.427,0,0,1,1.388-1.1h2.213a1.44,1.44,0,0,1,1.367,1.09l.233,1c.249.135.5.271.727.422l1-.281a1.449,1.449,0,0,1,1.622.662l1.1,1.908a1.436,1.436,0,0,1-.228,1.752l-.732.668v.861l.732.689a1.432,1.432,0,0,1,.25,1.752l-1.1,1.908a1.455,1.455,0,0,1-1.649.662l-.955-.281c-.228.15-.477.287-.727.422l-.233,1a1.439,1.439,0,0,1-1.388,1.1Zm-1.763-3.883a4.425,4.425,0,0,0,1,.611l.336.137.4,1.664h2.251l.4-1.664.325-.137a4.536,4.536,0,0,0,1.052-.611l.293-.223,1.638.492,1.1-1.924-1.231-1.162v-.363a4.588,4.588,0,0,0,0-1.219l-.081-.359,1.231-1.17-1.1-1.91-1.638.473-.293-.213a4.614,4.614,0,0,0-1.047-.611l-.331-.143-.4-1.658h-2.207l-.4,1.658-.342.143a4.513,4.513,0,0,0-1,.611l-.293.213-1.638-.473-1.112,1.91,1.242,1.17-.049.359a5.729,5.729,0,0,0,0,1.219l.049.363-1.242,1.162,1.15,1.924,1.643-.492Zm-4.946-.607h.005Zm-6.481-3.678a10.927,10.927,0,0,1-2.609-7.084,10.852,10.852,0,0,1,3.194-7.723,10.838,10.838,0,0,1,7.718-3.193,10.851,10.851,0,0,1,7.723,3.193,10.857,10.857,0,0,1,3.2,7.723,11.294,11.294,0,0,1-.125,1.654l-1.079.3a8.8,8.8,0,0,0-.8-.455l-.25-1.09a1.579,1.579,0,0,0-1.5-1.193h-2.413a1.549,1.549,0,0,0-1.519,1.2l-.033.131a2.631,2.631,0,0,0-.645-.629,7.444,7.444,0,0,0-2.131-.852l-.016-.006-.011-.006h-.005a1.217,1.217,0,0,1-.282-.113,3.707,3.707,0,0,1-1.421-.5.432.432,0,0,1-.25-.412c.022-.256.3-.5.58-.619a3,3,0,0,1,1.166-.232,2.865,2.865,0,0,1,.58.059c.255.055.494.119.754.186l.146.043a.136.136,0,0,1,.038.01.073.073,0,0,1,.033.012,1.066,1.066,0,0,1,.13.033.992.992,0,0,0,.25.031.918.918,0,0,0,.884-.666.98.98,0,0,0-.645-1.178.188.188,0,0,1-.06.006.4.4,0,0,1-.163-.033h-.011a8.425,8.425,0,0,0-1.237-.281v-.607a.916.916,0,0,0-.922-.916.9.9,0,0,0-.917.916v.684l-.06.01a2.661,2.661,0,0,0-.689.234,2.616,2.616,0,0,0-1.665,1.871,2.337,2.337,0,0,0,1.085,2.4,7.968,7.968,0,0,0,2.045.8c.027.006.049.016.076.021a1.262,1.262,0,0,0,.217.055,1.426,1.426,0,0,0,.2.049l.005.01a3.33,3.33,0,0,1,1.275.516.578.578,0,0,1,.271.418l-.71-.2a1.6,1.6,0,0,0-.423-.059,1.557,1.557,0,0,0-1.345.775l-.141.248c-.325-.08-.64-.184-.987-.3l-.076-.021c-.054-.021-.1-.039-.157-.055s-.108-.037-.163-.055a.907.907,0,0,0-.293-.049.918.918,0,0,0-.873.629.9.9,0,0,0,.054.711.88.88,0,0,0,.531.455c.26.088.645.213,1.025.326l-.108.2a1.554,1.554,0,0,0,.282,1.908l.786.732v.939l-.786.754a1.547,1.547,0,0,0-.282,1.908l.032.061A10.933,10.933,0,0,1-1600.392,21602Zm11.411.494a2.856,2.856,0,0,1,2.858-2.859,2.856,2.856,0,0,1,2.858,2.859,2.858,2.858,0,0,1-2.858,2.857A2.858,2.858,0,0,1-1588.981,21602.5Zm1.437-.006a1.429,1.429,0,0,0,1.421,1.432,1.434,1.434,0,0,0,1.02-.412,1.451,1.451,0,0,0,.418-1.014,1.43,1.43,0,0,0-1.426-1.434A1.433,1.433,0,0,0-1587.544,21602.49Z" transform="translate(1603 -21584.002)"/>
</svg>
