<svg id="icon-content-save" xmlns="http://www.w3.org/2000/svg" width="18" height="18" viewBox="0 0 18 18">
  <path id="floppy-disk" d="M9,41a2.571,2.571,0,1,0,2.571,2.571A2.579,2.579,0,0,0,9,41Zm8.4-5.1L14.03,32.53A1.9,1.9,0,0,0,12.7,32H2.571A2.571,2.571,0,0,0,0,34.571V47.429A2.571,2.571,0,0,0,2.571,50H15.429A2.571,2.571,0,0,0,18,47.429V37.3A1.966,1.966,0,0,0,17.4,35.9ZM5.143,33.929h5.786v3.214H5.143Zm10.929,13.5a.643.643,0,0,1-.643.643H2.571a.643.643,0,0,1-.643-.643V34.571a.643.643,0,0,1,.643-.643h.643v4.179a.965.965,0,0,0,.964.964h7.714a.962.962,0,0,0,.964-.964V34.084L16,37.228a.232.232,0,0,1,.07.168Z" transform="translate(0 -32)"/>
</svg>
