<svg id="icon-charts-pie" xmlns="http://www.w3.org/2000/svg" width="16" height="16" viewBox="0 0 16 16">
  <path id="icon-charts-pie-2" data-name="icon-charts-pie" d="M-2153.519,21056.658h-6.981v-6.982a.491.491,0,0,1,.5-.518,7,7,0,0,1,7,7A.51.51,0,0,1-2153.519,21056.658Zm-8.481,1.5h6.916a.9.9,0,0,1,.922,1.057,7.5,7.5,0,0,1-7.337,5.943,7.5,7.5,0,0,1-7.5-7.5,7.5,7.5,0,0,1,5.944-7.338.9.9,0,0,1,1.056.922Zm-1.5-6.158a6,6,0,0,0-4,5.658,5.984,5.984,0,0,0,6,6,6,6,0,0,0,5.659-4h-7.659Z" transform="translate(2169 -21049.158)"/>
</svg>
