<svg id="icon-tasks" xmlns="http://www.w3.org/2000/svg" width="18" height="24" viewBox="0 0 18 24">
  <path id="clipboard-list-check" d="M15,3H12.675a3.751,3.751,0,0,0-7.35,0H3A3,3,0,0,0,0,6V21a3,3,0,0,0,3,3H15a3,3,0,0,0,3-3V6A3,3,0,0,0,15,3ZM9,2.25A1.125,1.125,0,1,1,7.875,3.375,1.126,1.126,0,0,1,9,2.25ZM15.75,21a.751.751,0,0,1-.75.75H3A.751.751,0,0,1,2.25,21V6A.751.751,0,0,1,3,5.25h.856A2.953,2.953,0,0,0,3.75,6v.75a.751.751,0,0,0,.75.75h9a.75.75,0,0,0,.75-.75V6a2.973,2.973,0,0,0-.106-.75H15a.751.751,0,0,1,.75.75ZM13.5,12H8.25a.75.75,0,0,0,0,1.5H13.5a.75.75,0,0,0,0-1.5Zm0,4.5H8.25a.75.75,0,0,0,0,1.5H13.5a.75.75,0,0,0,0-1.5Zm-8.625-.375A1.125,1.125,0,1,0,6,17.25,1.125,1.125,0,0,0,4.875,16.125ZM5.063,13.5a.747.747,0,0,0,.53-.22l2.25-2.25a.75.75,0,0,0-1.06-1.06l-1.72,1.721-.595-.6a.75.75,0,0,0-1.06,1.06l1.125,1.125A.755.755,0,0,0,5.063,13.5Z"/>
</svg>
