<svg id="icon-ewb-switch-grid-v2" xmlns="http://www.w3.org/2000/svg" width="18" height="18" viewBox="0 0 18 18">
  <path id="grid-2" d="M7.714,37.786a1.929,1.929,0,0,1-1.929,1.929H1.929A1.929,1.929,0,0,1,0,37.786V33.929A1.929,1.929,0,0,1,1.929,32H5.786a1.929,1.929,0,0,1,1.929,1.929Zm0,10.286A1.929,1.929,0,0,1,5.786,50H1.929A1.929,1.929,0,0,1,0,48.071V44.214a1.929,1.929,0,0,1,1.929-1.929H5.786a1.929,1.929,0,0,1,1.929,1.929Zm2.571-14.143A1.929,1.929,0,0,1,12.214,32h3.857A1.929,1.929,0,0,1,18,33.929v3.857a1.929,1.929,0,0,1-1.929,1.929H12.214a1.929,1.929,0,0,1-1.929-1.929ZM18,48.071A1.929,1.929,0,0,1,16.071,50H12.214a1.929,1.929,0,0,1-1.929-1.929V44.214a1.929,1.929,0,0,1,1.929-1.929h3.857A1.929,1.929,0,0,1,18,44.214Z" transform="translate(0 -32)"/>
</svg>
