<svg id="icon-content-printer" xmlns="http://www.w3.org/2000/svg" width="18" height="18" viewBox="0 0 18 18">
  <path id="print" d="M15.75,6.75H2.25A2.251,2.251,0,0,0,0,9v3.375A1.125,1.125,0,0,0,1.125,13.5H2.25v3.375A1.125,1.125,0,0,0,3.375,18h11.25a1.125,1.125,0,0,0,1.125-1.125V13.5h1.125A1.125,1.125,0,0,0,18,12.375V9A2.252,2.252,0,0,0,15.75,6.75Zm-2.25,9h-9V12.375h9Zm1.688-5.344a.844.844,0,1,1,.844-.844A.844.844,0,0,1,15.188,10.406ZM4.5,2.25h8.068l.932.932V5.625h2.25V2.716a1.125,1.125,0,0,0-.33-.8L13.83.33A1.124,1.124,0,0,0,13.036,0H3.375A1.125,1.125,0,0,0,2.25,1.125v4.5H4.5Z"/>
</svg>
