<svg xmlns="http://www.w3.org/2000/svg" width="24.258" height="22.342" viewBox="0 0 24.258 22.342">
  <g id="icon-list-settings" transform="translate(0)">
    <path id="Union_8" data-name="Union 8" d="M-1587.392,21606.34a1.435,1.435,0,0,1-1.388-1.1l-.239-1a8.191,8.191,0,0,1-.721-.422l-1,.281a1.42,1.42,0,0,1-1.621-.662l-1.106-1.908a1.424,1.424,0,0,1,.255-1.752l.721-.693v-.857l-.721-.672a1.416,1.416,0,0,1-.255-1.746l1.084-1.9a1.42,1.42,0,0,1,1.621-.656l1,.275c.233-.146.477-.281.721-.416l.239-1a1.442,1.442,0,0,1,1.388-1.1h2.212a1.448,1.448,0,0,1,1.372,1.1l.233,1c.244.131.5.271.727.418l1-.277a1.449,1.449,0,0,1,1.616.656l1.1,1.914a1.428,1.428,0,0,1-.228,1.746l-.732.672v.857l.732.693a1.44,1.44,0,0,1,.249,1.752l-1.1,1.908a1.457,1.457,0,0,1-1.648.662l-.949-.281c-.233.152-.483.287-.737.422l-.222,1a1.454,1.454,0,0,1-1.394,1.1Zm-1.757-3.883a4.31,4.31,0,0,0,1,.613l.342.135.4,1.66h2.256l.4-1.66.325-.135a4.4,4.4,0,0,0,1.047-.613l.293-.217,1.643.488,1.1-1.92-1.231-1.166v-.369a4.559,4.559,0,0,0,0-1.215l-.076-.357,1.225-1.176-1.1-1.9-1.643.479-.287-.223a4.808,4.808,0,0,0-1.052-.613l-.325-.135-.4-1.66h-2.207l-.4,1.66-.342.135a4.845,4.845,0,0,0-1,.613l-.287.223-1.643-.479-1.106,1.9,1.242,1.176-.054.357a6.493,6.493,0,0,0,0,1.215l.054.369-1.242,1.166,1.15,1.92,1.643-.488Zm-13.61,1.859a1.648,1.648,0,0,1,0-1.713,1.635,1.635,0,0,1,1.529-.775h4.718a1.624,1.624,0,0,1,1.529.775,1.625,1.625,0,0,1,0,1.713,1.619,1.619,0,0,1-1.388.781,1.134,1.134,0,0,1-.141-.006h-4.718q-.072.006-.143.006A1.625,1.625,0,0,1-1602.76,21604.316Zm14.778-3.328a2.858,2.858,0,0,1-1.189-2.316,2.846,2.846,0,0,1,.454-1.547,2.85,2.85,0,0,1,2.409-1.316,2.855,2.855,0,0,1,2.858,2.857s0,0,0,0v0a2.822,2.822,0,0,1-.3,1.266,2.857,2.857,0,0,1-2.56,1.592A2.845,2.845,0,0,1-1587.982,21600.988Zm.253-2.322a1.431,1.431,0,0,0,1.421,1.432,1.427,1.427,0,0,0,1.014-.418,1.426,1.426,0,0,0,.238-.311,1.415,1.415,0,0,0,.185-.7,1.434,1.434,0,0,0-1.089-1.393,1.468,1.468,0,0,0-.337-.039h-.005A1.428,1.428,0,0,0-1587.729,21598.666Zm-8.784-2.477h-4.718a1.663,1.663,0,0,1-1.529-.781,1.659,1.659,0,0,1,0-1.719,1.662,1.662,0,0,1,1.529-.775h4.718a1.651,1.651,0,0,1,1.529.775,1.635,1.635,0,0,1,0,1.719,1.641,1.641,0,0,1-1.4.785C-1596.426,21596.193-1596.47,21596.193-1596.513,21596.189Zm16-8.916h-20.719a1.642,1.642,0,0,1-1.529-.775,1.659,1.659,0,0,1,0-1.719,1.658,1.658,0,0,1,1.529-.775h20.719a1.658,1.658,0,0,1,1.529.775,1.659,1.659,0,0,1,0,1.719,1.651,1.651,0,0,1-1.4.781A.967.967,0,0,1-1580.511,21587.273Z" transform="translate(1603 -21583.998)"/>
  </g>
</svg>
