<svg id="icon-content-save-as-1" xmlns="http://www.w3.org/2000/svg" width="18" height="18" viewBox="0 0 18 18">
  <path id="floppy-disks" d="M17.5,3.443,14.555.494A1.677,1.677,0,0,0,13.363,0H5.625a2.251,2.251,0,0,0-2.25,2.25V12.375a2.25,2.25,0,0,0,2.25,2.25H15.75A2.25,2.25,0,0,0,18,12.375V4.637A1.684,1.684,0,0,0,17.5,3.443ZM7.875,1.688h3.938V3.375H7.875Zm8.438,10.688a.563.563,0,0,1-.562.563H5.625a.563.563,0,0,1-.562-.562V2.25a.562.562,0,0,1,.563-.562h.563V4.219a.844.844,0,0,0,.844.844h5.625a.842.842,0,0,0,.844-.844V1.824l2.75,2.75a.206.206,0,0,1,.062.151ZM10.688,6.75A2.25,2.25,0,1,0,12.938,9,2.257,2.257,0,0,0,10.688,6.75ZM13.781,18H4.219A4.223,4.223,0,0,1,0,13.781V4.219a.844.844,0,0,1,1.688,0v9.563a2.534,2.534,0,0,0,2.531,2.531h9.563a.844.844,0,0,1,0,1.688Z"/>
</svg>
