<svg id="icon-content-archive" xmlns="http://www.w3.org/2000/svg" width="18" height="15.75" viewBox="0 0 18 15.75">
  <path id="box-archive" d="M16.313,32H1.688A1.687,1.687,0,0,0,0,33.688v2.25a1.122,1.122,0,0,0,1.093,1.125L1.125,45.5a2.25,2.25,0,0,0,2.25,2.25h11.25a2.25,2.25,0,0,0,2.25-2.25V37.063A1.122,1.122,0,0,0,18,35.969V33.688A1.688,1.688,0,0,0,16.313,32ZM14.625,46.063H3.375a.562.562,0,0,1-.562-.562V37.063H15.188V45.5A.564.564,0,0,1,14.625,46.063Zm1.688-10.687H1.688V33.688H16.313ZM6.437,40.438H11.5a.844.844,0,1,0,.032-1.687H6.437a.829.829,0,0,0-.812.812A.844.844,0,0,0,6.437,40.438Z" transform="translate(0 -32)"/>
</svg>
