<svg id="icon-content-edit" xmlns="http://www.w3.org/2000/svg" width="14" height="13.999" viewBox="0 0 14 13.999">
  <path id="pencil" d="M11.543,6.586,5.16,12.967l-.928-.928.1-.1H3.066a.439.439,0,0,1-.438-.438V10.243l-.1.1a1.111,1.111,0,0,0-.276.465l-.629,2.141,2.139-.63a1.3,1.3,0,0,0,.465-.276l.928.928a2.4,2.4,0,0,1-1.024.608l-3.294.969a.617.617,0,0,1-.65-.189.6.6,0,0,1-.166-.627L1,10.435A2.414,2.414,0,0,1,1.6,9.411L7.985,3.029Zm1.943-4.422a1.753,1.753,0,0,1,0,2.479L12.162,5.968,8.6,2.41,9.928,1.085a1.755,1.755,0,0,1,2.48,0Z" transform="translate(0 -0.572)"/>
</svg>
