<svg id="icon-content-eye-filled-hide" xmlns="http://www.w3.org/2000/svg" width="18" height="14.4" viewBox="0 0 18 14.4">
  <path id="eye-slash" d="M4.239,2.609A7.681,7.681,0,0,1,9,.9a7.919,7.919,0,0,1,5.417,2.267A10.9,10.9,0,0,1,17.03,6.854a.894.894,0,0,1,0,.692,11.151,11.151,0,0,1-2.247,3.33l2.959,2.317a.675.675,0,1,1-.832,1.063L.259,1.206A.675.675,0,1,1,1.092.144Zm1.1.864L6.632,4.486A3.6,3.6,0,0,1,12.2,8.851l1.513,1.187a10.935,10.935,0,0,0,2-2.838A10.147,10.147,0,0,0,13.5,4.154,6.6,6.6,0,0,0,9,2.225,6.2,6.2,0,0,0,5.338,3.474Zm5.768,4.52a2.292,2.292,0,0,0,.143-.818A2.266,2.266,0,0,0,9,4.925c-.02,0-.037.025-.082.025A1.082,1.082,0,0,1,9,5.375a1.821,1.821,0,0,1-.186.821Zm.264,3.665,1.178.928A7.393,7.393,0,0,1,9,13.5a7.914,7.914,0,0,1-5.417-2.267A11.453,11.453,0,0,1,.969,7.546a.9.9,0,0,1,0-.692A10.694,10.694,0,0,1,2.337,4.542L3.4,5.378a9.027,9.027,0,0,0-1.107,1.8A9.766,9.766,0,0,0,4.5,10.246,6.583,6.583,0,0,0,9,12.15a5.983,5.983,0,0,0,2.371-.492ZM5.4,7.175c0-.056,0-.135.008-.214L6.986,8.2A2.151,2.151,0,0,0,8.494,9.369l1.581,1.268a4.623,4.623,0,0,1-1.1.163,3.621,3.621,0,0,1-3.6-3.625Z" transform="translate(0 0)"/>
</svg>
