<svg id="icon-annotate" xmlns="http://www.w3.org/2000/svg" width="24" height="23.833" viewBox="0 0 24 23.833">
  <path id="message-lines" d="M16.017,6.75H6.267a1.125,1.125,0,1,0,0,2.25h9.75a1.125,1.125,0,0,0,0-2.25Zm-4.5,4.5H6.267a1.125,1.125,0,1,0,0,2.25h5.25a1.125,1.125,0,0,0,0-2.25ZM20.1,0H2.1a3,3,0,0,0-3,2.958V16.415a2.97,2.97,0,0,0,3,2.958H6.6v3.9a.562.562,0,0,0,.9.455L13.35,19.33H20.1a3,3,0,0,0,3-2.958V2.958A2.973,2.973,0,0,0,20.1,0Zm.792,16.5a.755.755,0,0,1-.75.75h-7.5l-3.75,2.812V17.249H2.142a.755.755,0,0,1-.75-.75V3a.755.755,0,0,1,.75-.75h18a.755.755,0,0,1,.75.75Z" transform="translate(0.9)" fill="#1a1a1a"/>
</svg>
