<svg id="icon-content-folder-outline" xmlns="http://www.w3.org/2000/svg" width="18" height="15.75" viewBox="0 0 18 15.75">
  <path id="folder" d="M14.85,34.25H8.8L7.1,32.659A2.243,2.243,0,0,0,5.512,32H1.35A2.25,2.25,0,0,0-.9,34.25V45.5a2.25,2.25,0,0,0,2.25,2.25h13.5A2.25,2.25,0,0,0,17.1,45.5v-9A2.232,2.232,0,0,0,14.85,34.25Zm.563,11.25a.563.563,0,0,1-.562.563H1.35A.563.563,0,0,1,.787,45.5V34.25a.563.563,0,0,1,.563-.562H5.481a.558.558,0,0,1,.4.165L8.1,35.938h6.75a.563.563,0,0,1,.563.563Z" transform="translate(0.9 -32)"/>
</svg>
