<svg id="icon-content-delete" xmlns="http://www.w3.org/2000/svg" width="16" height="18.286" viewBox="0 0 16 18.286">
  <path id="trash-can" d="M5.714,14.286a.571.571,0,0,1-1.143,0V6.857a.571.571,0,1,1,1.143,0Zm2.857,0a.571.571,0,0,1-1.143,0V6.857a.571.571,0,1,1,1.143,0Zm2.857,0a.571.571,0,1,1-1.143,0V6.857a.571.571,0,1,1,1.143,0ZM11.339.891,12.65,2.857h2.493a.857.857,0,0,1,0,1.714h-.286V15.429A2.856,2.856,0,0,1,12,18.286H4a2.857,2.857,0,0,1-2.857-2.857V4.571H.857a.857.857,0,0,1,0-1.714H3.351L4.661.891A2,2,0,0,1,6.325,0h3.35a2,2,0,0,1,1.664.891ZM5.411,2.857h5.179L9.911,1.841a.287.287,0,0,0-.236-.127H6.325c-.093,0-.214.048-.236.127ZM2.857,15.429A1.142,1.142,0,0,0,4,16.571h8a1.142,1.142,0,0,0,1.143-1.143V4.571H2.857Z"/>
</svg>
