<svg id="icon-data-grid-tree" xmlns="http://www.w3.org/2000/svg" width="18" height="14.625" viewBox="0 0 18 14.625">
  <path id="list-tree" d="M2.531,48a.844.844,0,0,1,.844.844v1.688a.843.843,0,0,1-.844.844v3.094H4.5a.842.842,0,0,1,.844-.844H7.031a.842.842,0,0,1,.844.844v1.688A.842.842,0,0,1,7.031,57H5.344a.842.842,0,0,1-.844-.844H2.531v3.656a.282.282,0,0,0,.281.281H4.5a.842.842,0,0,1,.844-.844H7.031a.842.842,0,0,1,.844.844v1.688a.842.842,0,0,1-.844.844H5.344a.842.842,0,0,1-.844-.844H2.813A1.969,1.969,0,0,1,.844,59.813V51.375A.843.843,0,0,1,0,50.531V48.844A.844.844,0,0,1,.844,48Zm3.094,1.688a.843.843,0,0,1,.844-.844H17.156a.844.844,0,0,1,0,1.688H6.469A.842.842,0,0,1,5.625,49.688Zm4.5,5.625a.842.842,0,0,1,.844-.844h6.188a.844.844,0,0,1,0,1.688H10.969A.842.842,0,0,1,10.125,55.313Zm0,5.625a.842.842,0,0,1,.844-.844h6.188a.844.844,0,0,1,0,1.688H10.969A.842.842,0,0,1,10.125,60.938Z" transform="translate(0 -48)"/>
</svg>
