<svg id="icon-data-filter" xmlns="http://www.w3.org/2000/svg" width="18" height="15.75" viewBox="0 0 18 15.75">
  <path id="filter" d="M0,33.466A1.466,1.466,0,0,1,1.466,32H16.534a1.464,1.464,0,0,1,1.136,2.391L11.813,41.58v5.034a1.137,1.137,0,0,1-1.136,1.136,1.011,1.011,0,0,1-.707-.278L6.718,44.923a1.41,1.41,0,0,1-.531-1.1V41.58L.33,34.391A1.459,1.459,0,0,1,0,33.466Zm1.932.221,5.753,7.059a.849.849,0,0,1,.19.534v2.4l2.25,1.786V41.281a.849.849,0,0,1,.19-.534l5.752-7.059Z" transform="translate(0 -32)"/>
</svg>
