<svg id="icon-energy-economics" xmlns="http://www.w3.org/2000/svg" width="18" height="15.75" viewBox="0 0 18 15.75">
  <path id="icon-energy-economics-2" data-name="icon-energy-economics" d="M-2849.875,21050a1.125,1.125,0,0,1,1.125,1.125v11.813a.564.564,0,0,0,.563.563h14.063a1.123,1.123,0,0,1,1.125,1.125,1.123,1.123,0,0,1-1.125,1.125h-14.062a2.812,2.812,0,0,1-2.812-2.812v-11.812A1.125,1.125,0,0,1-2849.875,21050Zm4.5,6.75a1.123,1.123,0,0,1,1.125,1.125v2.25a1.123,1.123,0,0,1-1.125,1.125,1.123,1.123,0,0,1-1.125-1.125v-2.25A1.123,1.123,0,0,1-2845.375,21056.746Zm4.5,3.375a1.123,1.123,0,0,1-1.125,1.125,1.123,1.123,0,0,1-1.125-1.125v-5.625a1.123,1.123,0,0,1,1.125-1.125,1.123,1.123,0,0,1,1.125,1.125Zm2.25-4.5a1.123,1.123,0,0,1,1.125,1.125v3.375a1.123,1.123,0,0,1-1.125,1.125,1.123,1.123,0,0,1-1.125-1.125v-3.375A1.123,1.123,0,0,1-2838.625,21055.621Zm4.5,4.5a1.123,1.123,0,0,1-1.125,1.125,1.123,1.123,0,0,1-1.125-1.125v-7.875a1.125,1.125,0,0,1,1.125-1.125,1.125,1.125,0,0,1,1.125,1.125Z" transform="translate(2851 -21049.996)"/>
</svg>
