<svg id="icon-content-refresh" xmlns="http://www.w3.org/2000/svg" width="18" height="16.798" viewBox="0 0 18 16.798">
  <path id="rotate" d="M33.385,32.068a.9.9,0,0,0-.981.2L30.51,34.157a8.355,8.355,0,0,0-13.634,3.891.9.9,0,0,0,1.727.5,6.567,6.567,0,0,1,10.639-3.123l-2.236,2.236a.9.9,0,0,0,.636,1.536h5.4a.923.923,0,0,0,.9-.9V32.9A.9.9,0,0,0,33.385,32.068ZM32.391,41.6a.9.9,0,0,0-1.115.612A6.586,6.586,0,0,1,20.607,45.37l2.235-2.235a.892.892,0,0,0,.2-.975.838.838,0,0,0-.83-.561H16.844a.9.9,0,0,0-.9.9v5.4a.9.9,0,0,0,1.536.637L19.37,46.64a8.327,8.327,0,0,0,13.6-3.89A.891.891,0,0,0,32.391,41.6Z" transform="translate(-15.94 -32)"/>
</svg>
