<svg id="icon-content-arrow-diagonal" xmlns="http://www.w3.org/2000/svg" width="16" height="16" viewBox="0 0 16 16">
  <path id="arrow-up-right-and-arrow-down-left-from-center" d="M15.509,1.061A.815.815,0,0,0,15.2,1H10.452a.8.8,0,1,0-.03,1.594h2.857L8.8,7.076A.8.8,0,0,0,9.924,8.2l4.482-4.482V6.578a.8.8,0,0,0,.8.8.806.806,0,0,0,.8-.827V1.8a.8.8,0,0,0-.491-.735ZM.492,16.937A.748.748,0,0,0,.8,17H5.548a.8.8,0,0,0,.827-.8.8.8,0,0,0-.8-.8H2.721L7.2,10.924A.8.8,0,0,0,6.076,9.8L1.594,14.281V11.422a.8.8,0,0,0-1.594,0V16.2a.8.8,0,0,0,.492.734Z" transform="translate(0 -1)"/>
</svg>
