<svg id="icon-general-star-filled" xmlns="http://www.w3.org/2000/svg" width="18" height="17.456" viewBox="0 0 18 17.456">
  <g id="icon-general-star-outline">
    <path id="star" d="M33,0a.818.818,0,0,1,.737.461l2.339,4.818,5.227.774a.816.816,0,0,1,.457,1.388L37.967,11.2l.9,5.3a.82.82,0,0,1-1.193.859L33,14.864l-4.7,2.5a.778.778,0,0,1-.835-.058.911.911,0,0,1-.358-.8l.924-5.3L24.242,7.44A.816.816,0,0,1,24.7,6.053l5.224-.774L32.262.461A.822.822,0,0,1,33,0Z" transform="translate(-24)"/>
  </g>
</svg>
