<svg id="icon-core-help" xmlns="http://www.w3.org/2000/svg" width="18" height="18" viewBox="0 0 18 18">
  <path id="circle-question" d="M9,0a9,9,0,1,0,9,9A9,9,0,0,0,9,0ZM9,16.313A7.313,7.313,0,1,1,16.313,9,7.321,7.321,0,0,1,9,16.313Zm0-4.5a1.111,1.111,0,0,0-1.125,1.125A1.092,1.092,0,0,0,9,14.063a1.125,1.125,0,0,0,0-2.25ZM10.164,4.5h-1.8A2.446,2.446,0,0,0,5.906,6.961a.844.844,0,0,0,1.688,0,.754.754,0,0,1,.742-.773h1.8a.816.816,0,0,1,.837.773.705.705,0,0,1-.387.636l-2,1.227a.867.867,0,0,0-.422.738v.563a.844.844,0,0,0,1.688,0v-.07l1.586-.984a2.508,2.508,0,0,0,1.2-2.109A2.407,2.407,0,0,0,10.164,4.5Z"/>
</svg>
