<svg id="icon-data-charts" xmlns="http://www.w3.org/2000/svg" width="18" height="15.75" viewBox="0 0 18 15.75">
  <path id="chart-bar" d="M1.125,32A1.125,1.125,0,0,1,2.25,33.125V44.938a.563.563,0,0,0,.563.563H16.875a1.125,1.125,0,0,1,0,2.25H2.813A2.812,2.812,0,0,1,0,44.938V33.125A1.125,1.125,0,0,1,1.125,32ZM4.5,35.375A1.124,1.124,0,0,1,5.625,34.25h6.75a1.125,1.125,0,0,1,0,2.25H5.625A1.124,1.124,0,0,1,4.5,35.375Zm5.625,2.25a1.125,1.125,0,0,1,0,2.25h-4.5a1.125,1.125,0,0,1,0-2.25ZM14.625,41a1.125,1.125,0,0,1,0,2.25h-9a1.125,1.125,0,0,1,0-2.25Z" transform="translate(0 -32)"/>
</svg>
