<svg id="icon-upload" xmlns="http://www.w3.org/2000/svg" width="18" height="18" viewBox="0 0 18 18">
  <path id="icon-upload-2" data-name="icon-upload" d="M-1698.026,21412.182h-4.5v1.688h4.5a.563.563,0,0,1,.563.563v2.813a.563.563,0,0,1-.562.563h-13.5a.563.563,0,0,1-.562-.562v-2.812a.563.563,0,0,1,.563-.562h4.5v-1.687h-4.5a2.25,2.25,0,0,0-2.25,2.25v2.813a2.25,2.25,0,0,0,2.25,2.25h13.5a2.25,2.25,0,0,0,2.25-2.25v-2.812A2.251,2.251,0,0,0-1698.026,21412.182Zm-10.965-4.5,3.371-3.311v9.494a.845.845,0,0,0,.844.844.845.845,0,0,0,.844-.844v-9.494l3.341,3.34a.832.832,0,0,0,.6.248.833.833,0,0,0,.6-.248.844.844,0,0,0,0-1.193l-4.781-4.781a.846.846,0,0,0-1.193,0l-4.781,4.781a.844.844,0,0,0,0,1.193A.784.784,0,0,0-1708.991,21407.686Zm10.4,8.152a.843.843,0,0,0-.844-.844.842.842,0,0,0-.844.844.845.845,0,0,0,.844.844A.843.843,0,0,0-1698.588,21415.838Z" transform="translate(1713.776 -21401.494)"/>
</svg>
