<svg id="icon-content-download" xmlns="http://www.w3.org/2000/svg" width="18" height="18" viewBox="0 0 18 18">
  <path id="download" d="M15.75,10.688H13.869l-1.687,1.688H15.75a.563.563,0,0,1,.563.563V15.75a.563.563,0,0,1-.562.563H2.25a.563.563,0,0,1-.562-.562V12.938a.564.564,0,0,1,.563-.562H5.818L4.131,10.688H2.25A2.25,2.25,0,0,0,0,12.938V15.75A2.25,2.25,0,0,0,2.25,18h13.5A2.25,2.25,0,0,0,18,15.75V12.938A2.252,2.252,0,0,0,15.75,10.688Zm-.562,3.656a.844.844,0,1,0-.844.844A.844.844,0,0,0,15.188,14.344ZM8.4,12.941a.758.758,0,0,0,.6.278.838.838,0,0,0,.6-.247L14.378,8.19A.844.844,0,0,0,13.185,7L9.844,10.339V.844a.844.844,0,0,0-1.687,0v9.5L4.785,7A.844.844,0,0,0,3.592,8.189Z"/>
</svg>
