<svg id="icon-edit-folder" xmlns="http://www.w3.org/2000/svg" width="27" height="22" viewBox="0 0 27 22">
  <path id="Subtraction_3" data-name="Subtraction 3" d="M-11960,8358h-2.208l2.1-2.249h.11a.751.751,0,0,0,.752-.749v-.176l2.249-2.411V8355A3,3,0,0,1-11960,8358Zm-12.156,0H-11978a3,3,0,0,1-3-3v-15a3,3,0,0,1,3-3h5.55a2.966,2.966,0,0,1,2.117.881l2.264,2.12h8.067a2.964,2.964,0,0,1,2.887,2.167,3.982,3.982,0,0,0-2.135.957V8343a.752.752,0,0,0-.752-.752h-9l-2.962-2.778a.736.736,0,0,0-.529-.22H-11978a.751.751,0,0,0-.752.749v15a.751.751,0,0,0,.752.749h6.952l-.073.078a3.971,3.971,0,0,0-1.037,2.17Z" transform="translate(11981 -8336.999)"/>
  <g id="icon-content-edit" transform="translate(11 6.001)">
    <path id="pencil" d="M13.193,7.445,5.9,14.738,4.837,13.677l.109-.109H3.5a.5.5,0,0,1-.5-.5V11.625l-.109.109a1.27,1.27,0,0,0-.316.532L1.86,14.713l2.445-.72a1.49,1.49,0,0,0,.532-.316L5.9,14.738a2.743,2.743,0,0,1-1.17.694L.963,16.54a.706.706,0,0,1-.743-.216.688.688,0,0,1-.189-.716l1.107-3.763a2.758,2.758,0,0,1,.694-1.17L9.126,3.38Zm2.221-5.054a2,2,0,0,1,0,2.833L13.9,6.738,9.833,2.672l1.514-1.514a2.005,2.005,0,0,1,2.834,0Z" transform="translate(0 -0.572)"/>
  </g>
</svg>
