<svg id="icon-dashboard" xmlns="http://www.w3.org/2000/svg" width="24.001" height="23.869" viewBox="0 0 24.001 23.869">
  <path id="Dashboard" d="M-2781,21123.719h1.719a10.3,10.3,0,0,0,8.556,9.416v1.734A12.018,12.018,0,0,1-2781,21123.719Zm15.112,5.348v-6.121h3v6.121Zm-4.2,0v-12.242h3v12.242Zm-4.206,0v-9.7h3v9.7Zm15.578-6.084a10.306,10.306,0,0,0-9.436-10.264V21111a12.013,12.013,0,0,1,11.155,11.977v.006Zm-22.267-.982a11.988,11.988,0,0,1,11.112-11v1.719a10.288,10.288,0,0,0-6.418,2.98,10.161,10.161,0,0,0-2.97,6.3Z" transform="translate(2781 -21111)"/>
</svg>
