<svg id="icon-core-feedback" xmlns="http://www.w3.org/2000/svg" width="18" height="17.906" viewBox="0 0 18 17.906">
  <path id="message" d="M14.849,0H1.35A2.248,2.248,0,0,0-.9,2.218V12.311A2.227,2.227,0,0,0,1.35,14.53H4.725v2.952a.421.421,0,0,0,.672.341L9.788,14.53H14.85a2.248,2.248,0,0,0,2.25-2.218V2.218A2.23,2.23,0,0,0,14.849,0Zm.594,12.375a.566.566,0,0,1-.562.562H9.256L6.444,15.046V12.937H1.382a.566.566,0,0,1-.562-.562V2.25a.566.566,0,0,1,.562-.562h13.5a.566.566,0,0,1,.562.562Z" transform="translate(0.9)"/>
</svg>
