<svg xmlns="http://www.w3.org/2000/svg" width="24" height="19.2" viewBox="0 0 24 19.2">
  <path id="users" d="M12,12A3.9,3.9,0,1,0,8.13,8.1,3.872,3.872,0,0,0,12,12Zm0-6A2.1,2.1,0,1,1,9.9,8.1,2.1,2.1,0,0,1,12,6Zm7.2,0a3,3,0,1,0-3-3A3,3,0,0,0,19.2,6Zm-5.329,7.2H10.129a5.172,5.172,0,0,0-5.329,5,1.033,1.033,0,0,0,1.065,1h12.27a1.033,1.033,0,0,0,1.065-1A5.172,5.172,0,0,0,13.871,13.2ZM6.679,17.4A3.491,3.491,0,0,1,10.1,15h3.775a3.492,3.492,0,0,1,3.418,2.4ZM20.7,7.2H18.377a3.127,3.127,0,0,0-1.345.309,5.138,5.138,0,0,1,.06.591,5.056,5.056,0,0,1-1.244,3.3h7.489A.683.683,0,0,0,24,10.7,3.405,3.405,0,0,0,20.7,7.2ZM6.9,8.1a5,5,0,0,1,.06-.6,2.716,2.716,0,0,0-1.335-.3H3.3A3.406,3.406,0,0,0,0,10.7a.683.683,0,0,0,.661.7H8.142A5.051,5.051,0,0,1,6.9,8.1ZM4.8,6a3,3,0,1,0-3-3A3,3,0,0,0,4.8,6Z" fill="#1a1a1a"/>
</svg>
